# xmcd CD database file
# Copyright (C) 1995-1998 Ti Kan
#
# Track frame offsets:
#	187
#	19962
#	38287
#	56407
#	71260
#	90995
#	106642
#	122302
#	139670
#	155732
#
# Disc length: 2309 seconds
#
# Revision: 9
# Processed by: cddbd v1.4PL0 Copyright (c) Steve Scherf et al.
# Submitted via: CDex 1.40Beta3
#
DISCID=6b09030a
DTITLE=Reba McEntire - Read My Mind
DYEAR=1994
DGENRE=Country
TTITLE0=Everything That You Want
TTITLE1=Read My Mind
TTITLE2=I Won't Stand In Line
TTITLE3=I Wish That I Could Tell You
TTITLE4=She Thinks His Name Was John
TTITLE5=Why Haven't I Heard From You
TTITLE6=And Still
TTITLE7=The Heart Is A Lonely Hunter
TTITLE8=I Wouldn't Wanna Be You
TTITLE9=Till You Love Me
EXTD=YEAR: 1994 ID3G:   2
EXTT0=
EXTT1=
EXTT2=
EXTT3=
EXTT4=
EXTT5=
EXTT6=
EXTT7=
EXTT8=
EXTT9=
PLAYORDER=
